<svg width="130" height="22" viewBox="0 0 130 22" fill="none" xmlns="http://www.w3.org/2000/svg">
<path d="M113.211 0.00231934H118.079V16.9055H129.342V21.1242H113.211V0.00231934ZM101.778 0.00231934L110.835 21.1242H105.712L103.872 16.7345H93.9957L92.1278 21.1242H87.1188L96.2314 0.00231934H101.778ZM95.722 12.6868H102.146L98.9482 5.13313L95.722 12.6868ZM85.3359 0.00231934V4.22099H72.5726V8.26863H83.6945V12.4018H72.5726V16.9055H85.3359V21.1242H67.7617V0.00231934H85.3359ZM51.1496 21.1242L42.122 0.00231934H47.4141L53.8947 15.4518L60.4036 0.00231934H65.5259L56.47 21.1242H51.1496ZM40.5655 0.00231934V4.22099H27.7739V8.26863H38.8958V12.4018H27.7739V16.9055H40.5372V21.1242H22.9912V0.00231934H40.5655ZM4.8793 21.1242H0.0117188V0.00231934H11.1053C16.0011 0.00231934 19.1707 2.3967 19.1707 6.7864C19.1707 9.9504 17.4728 12.1452 14.5862 13.0859L19.7368 21.0957H14.1617L9.49218 13.6275H4.8793V21.1242ZM10.8506 9.60835C13.1712 9.60835 14.388 8.58218 14.388 6.87191C14.388 5.13313 13.1429 4.13548 10.8506 4.13548H4.9076V9.60835H10.8506Z" fill="#0A151B"/>
</svg>
