<svg width="36" height="41" viewBox="0 0 36 41" fill="none" xmlns="http://www.w3.org/2000/svg">
<path d="M16.4606 3.0454V6.85842C11.076 7.37171 6.87157 11.918 6.87157 17.4175C6.87157 22.2571 10.1171 26.3268 14.5797 27.61L3.03595 34.8694V17.3809C3.03595 9.7915 8.9369 3.55869 16.4606 3.0454ZM16.4606 36.9959H3.55229L16.4606 28.8199V36.9959ZM18.5628 28.8566L31.4711 37.0326H18.5628V28.8566ZM16.4606 25.8135C12.2562 25.3002 8.97378 21.7072 8.97378 17.3809C8.97378 13.0546 12.2562 9.46153 16.4606 8.94824V25.8135ZM18.5628 8.94824C22.7673 9.46153 26.0497 13.0546 26.0497 17.3809C26.0497 21.7072 22.7673 25.3002 18.5628 25.8135V8.94824ZM31.9875 17.3809V34.8694L20.4438 27.5734C24.8695 26.2901 28.1519 22.2205 28.1519 17.3809C28.1519 11.8813 23.9474 7.37171 18.5628 6.82175V3.0454C26.0497 3.55869 31.9875 9.7915 31.9875 17.3809ZM17.4933 0.00231934C7.86736 0.00231934 0.0117188 7.81167 0.0117188 17.3809V40.0023H35.0117V17.3809C35.0117 7.81167 27.1561 0.00231934 17.4933 0.00231934Z" fill="#0A151B"/>
</svg>
